<?xml version="1.0" encoding="UTF-8"?>
<svg id="Layer_1" data-name="Layer 1" xmlns="http://www.w3.org/2000/svg" viewBox="0 0 1920 1080" fill="#FFFFFF">
  <path d="M455.86,645.2c-.74,1.59-2.55,2.33-4.19,1.73-16.54-6.04-79.25-28.84-99.61-36.25-2.64-.96-3.02-4.52-.66-6.04l80.48-51.58c.18-.12.33-.28.44-.47l19.97-37.6c.67-1.26-.92-2.49-1.97-1.54l-98.67,89.44c-4.6,0-7.41,0-12.01,0l-98.29-89.07c-1.07-.97-2.66.31-1.96,1.56l23.32,41.47c.11.19.26.34.44.46l76.54,47.35c2.41,1.49,2.05,5.1-.61,6.07-21.01,7.65-86.1,31.36-100.63,36.65-1.65.6-3.46-.15-4.2-1.73-30.86-66.17-85.29-182.96-117.92-252.97-1.38-2.95,1.8-5.96,4.67-4.42l223.04,119.16c1,.53,2.18.54,3.18,0,17.91-9.57,182.54-97.54,223.03-119.17,2.88-1.54,6.04,1.48,4.66,4.43-32.47,69.43-87.87,185.6-119.04,252.51Z"/>
  <g>
    <path d="M747,451.97c9.52,0,17.63.91,24.33,2.73,6.7,1.82,12.15,4.7,16.34,8.64,4.19,3.94,7.24,9.05,9.11,15.31,1.88,6.26,2.82,13.9,2.82,22.92v32.31c0,9.02-.94,16.69-2.82,23.01-1.88,6.32-4.92,11.46-9.11,15.4-4.19,3.95-9.64,6.79-16.34,8.55-6.7,1.76-14.81,2.63-24.33,2.63h-58.05c-9.52,0-17.59-.87-24.23-2.63-6.64-1.75-12.05-4.6-16.25-8.55-4.2-3.94-7.26-9.08-9.2-15.4-1.94-6.33-2.91-14-2.91-23.01v-32.31c0-9.02.97-16.65,2.91-22.92,1.94-6.26,5.01-11.37,9.2-15.31,4.19-3.95,9.61-6.83,16.25-8.64,6.64-1.81,14.72-2.73,24.23-2.73h58.05ZM665.1,531.81c0,4.88.41,8.98,1.22,12.3.81,3.32,2.16,5.95,4.04,7.89,1.88,1.94,4.41,3.32,7.61,4.13s7.23,1.22,12.11,1.22h55.79c4.88,0,8.92-.41,12.12-1.22s5.73-2.19,7.61-4.13c1.88-1.94,3.22-4.57,4.04-7.89.81-3.32,1.22-7.42,1.22-12.3v-28.18c0-4.88-.41-8.98-1.22-12.3-.82-3.32-2.16-5.95-4.04-7.89s-4.42-3.32-7.61-4.13c-3.19-.82-7.23-1.22-12.12-1.22h-55.79c-4.88,0-8.92.41-12.11,1.22-3.19.82-5.73,2.19-7.61,4.13-1.88,1.94-3.23,4.57-4.04,7.89-.82,3.32-1.22,7.42-1.22,12.3v28.18Z"/>
    <path d="M837.55,451.97c1.25,0,2.13.82,2.63,2.44l30.43,101.06c.12.88.62,1.32,1.5,1.32h.94c.75,0,1.25-.44,1.5-1.32l30.43-92.61c1.38-4.26,3.19-7.14,5.45-8.64,2.26-1.5,5.07-2.26,8.46-2.26h18.6c4.13,0,7.29.82,9.49,2.44,2.19,1.63,3.97,4.45,5.35,8.46l31.18,92.61c.25.88.75,1.32,1.5,1.32h1.13c.75,0,1.25-.44,1.5-1.32l29.68-101.06c.25-1,.66-1.66,1.22-1.97s1.16-.47,1.78-.47h25.36c1,0,1.6.44,1.78,1.32.19.88.09,1.88-.28,3.01l-36.07,112.9c-1.75,5.64-3.69,9.43-5.82,11.37-2.13,1.94-5.01,2.91-8.64,2.91h-21.98c-3.63,0-6.48-1-8.55-3.01-2.06-2-4.04-5.76-5.92-11.27l-29.49-89.23c-.13-.87-.63-1.32-1.5-1.32h-.75c-.88,0-1.38.44-1.5,1.32l-29.87,89.23c-1.88,5.51-3.85,9.27-5.92,11.27-2.07,2-4.92,3.01-8.55,3.01h-21.42c-2.13,0-3.98-.19-5.54-.56-1.57-.37-2.98-1.1-4.23-2.16-1.25-1.06-2.35-2.53-3.29-4.41-.94-1.88-1.85-4.26-2.72-7.14l-34.57-112.9c-.37-1.25-.47-2.28-.28-3.1.19-.81.78-1.22,1.78-1.22h25.17Z"/>
    <path d="M1088.14,451.97c2.75,0,4.13,1.38,4.13,4.14v74.95c0,5.01.41,9.17,1.22,12.49.81,3.32,2.16,5.95,4.04,7.89,1.88,1.95,4.42,3.32,7.61,4.14,3.19.82,7.23,1.22,12.12,1.22h76.08c2.75,0,4.14,1.38,4.14,4.13v18.41c0,2.76-1.38,4.13-4.14,4.13h-77.2c-9.52,0-17.6-.87-24.23-2.63-6.64-1.75-12.06-4.6-16.25-8.55-4.19-3.94-7.26-9.08-9.2-15.4-1.94-6.33-2.91-14-2.91-23.01v-77.77c0-2.75,1.44-4.14,4.32-4.14h20.29Z"/>
    <path d="M1321.63,451.97c2.88,0,4.32,1.38,4.32,4.14v18.41c0,2.88-1.44,4.32-4.32,4.32h-58.99v100.5c0,2.76-1.38,4.13-4.13,4.13h-20.47c-2.76,0-4.14-1.37-4.14-4.13v-100.5h-58.98c-2.88,0-4.32-1.44-4.32-4.32v-18.41c0-2.75,1.44-4.14,4.32-4.14h146.71Z"/>
    <path d="M1472.66,451.97c2.88,0,4.32,1.38,4.32,4.14v17.84c0,2.76-1.44,4.14-4.32,4.14h-82.09c-4.88,0-8.92.41-12.12,1.22-3.19.82-5.76,2.19-7.7,4.13-1.95,1.94-3.29,4.57-4.04,7.89-.75,3.32-1.13,7.42-1.13,12.3v1.88h106.13c2.75,0,4.14,1.38,4.14,4.13v14.84c0,2.75-1.38,4.13-4.14,4.13h-106.13v3.19c0,4.88.38,8.98,1.13,12.3.75,3.32,2.1,5.95,4.04,7.89,1.94,1.94,4.51,3.32,7.7,4.13s7.23,1.22,12.12,1.22h82.09c2.88,0,4.32,1.38,4.32,4.13v17.85c0,2.76-1.44,4.13-4.32,4.13h-82.65c-9.52,0-17.59-.87-24.23-2.63-6.64-1.75-12.06-4.6-16.25-8.55-4.2-3.94-7.27-9.08-9.2-15.4-1.95-6.33-2.91-14-2.91-23.01v-32.31c0-9.02.97-16.65,2.91-22.92,1.94-6.26,5.01-11.37,9.2-15.31,4.19-3.95,9.61-6.83,16.25-8.64,6.64-1.81,14.72-2.73,24.23-2.73h82.65Z"/>
    <path d="M1634.4,451.97c2.75,0,4.13,1.38,4.13,4.14v18.41c0,2.88-1.38,4.32-4.13,4.32h-83.59c-4.88,0-8.92.41-12.12,1.22-3.19.82-5.73,2.19-7.61,4.14-1.88,1.94-3.23,4.54-4.04,7.79-.82,3.26-1.22,7.39-1.22,12.4v26.67c0,5.01.41,9.17,1.22,12.49.81,3.32,2.16,5.95,4.04,7.89,1.88,1.95,4.42,3.32,7.61,4.14,3.19.82,7.23,1.22,12.12,1.22h83.59c2.75,0,4.13,1.38,4.13,4.13v18.41c0,2.76-1.38,4.13-4.13,4.13h-84.72c-9.52,0-17.59-.87-24.23-2.63-6.64-1.75-12.06-4.6-16.25-8.55-4.19-3.94-7.26-9.08-9.2-15.4-1.95-6.33-2.91-14-2.91-23.01v-32.31c0-9.02.97-16.65,2.91-22.92,1.94-6.26,5.01-11.37,9.2-15.31,4.19-3.95,9.61-6.83,16.25-8.64,6.64-1.81,14.71-2.73,24.23-2.73h84.72Z"/>
    <path d="M1683.23,451.97c2.75,0,4.14,1.38,4.14,4.14v48.84h87.91v-48.84c0-2.75,1.37-4.14,4.13-4.14h20.29c2.88,0,4.32,1.38,4.32,4.14v123.23c0,2.76-1.44,4.13-4.32,4.13h-20.29c-2.76,0-4.13-1.37-4.13-4.13v-49.97h-87.91v49.97c0,2.76-1.38,4.13-4.14,4.13h-20.28c-2.88,0-4.32-1.37-4.32-4.13v-123.23c0-2.75,1.44-4.14,4.32-4.14h20.28Z"/>
  </g>
</svg>